<svg xmlns="http://www.w3.org/2000/svg" viewBox="0 0 961.2 980.79"><title>google-37</title><path d="M979,511c0-40.34-3.25-69.73-10.37-100.27H508.2v182H778.46C773,638,743.6,706.07,678.19,751.8l-.9,6.09L822.87,870.68l10.09,1C925.61,786.17,979,660.3,979,511" transform="translate(-17.8 -9.7)" fill="#4285f4"/><path d="M508.2,990.5c132.41,0,243.55-43.59,324.76-118.8L678.19,751.84c-41.41,28.9-97,49-170,49-129.7,0-239.77-85.54-279-203.79l-5.76.49L72.05,714.72l-2,5.51C150.75,880.43,316.43,990.5,508.2,990.5" transform="translate(-17.8 -9.7)" fill="#34a853"/><path d="M229.25,597.12a301.18,301.18,0,0,1-16.35-97c0-33.79,6-66.47,15.81-97l-.29-6.51L75.14,277.58l-5,2.39a489.25,489.25,0,0,0,0,440.26L229.25,597.12" transform="translate(-17.8 -9.7)" fill="#fbbc05"/><path d="M508.2,199.33c92.07,0,154.19,39.77,189.63,73L836.21,137.22c-85-79-195.6-127.52-328-127.52C316.38,9.7,150.75,119.77,70.12,280L228.67,403.12c39.8-118.25,149.87-203.79,279.53-203.79" transform="translate(-17.8 -9.7)" fill="#eb4335"/></svg>